Simulation
nRows=20
nColumns=15
endheader
time  TH_x TH_y TH_z SC_y  SC_z  SC_x  AC_y  AC_z  AC_x  GH_y  GH_z  GH_yy  EL_x  PS_y
8.6175  0.000000  0.000000  0.000000  -35.7958949459365  2.253074477867523  -9.692995744570586  41.06443159454669  15.655651349677715  6.054120085617886  118.81054436389945  5.0004010624895745  -103.29512941844581  20.57258740847432  120.000000
8.67495  0.000000  0.000000  0.000000  -35.411999797650495  2.2631764331769895  -10.294811960529284  40.536729841702595  15.615264154680993  6.013813939144675  108.62516353464964  5.38689524107127  -93.17680427866205  20.50333889283643  120.000000
8.7324  0.000000  0.000000  0.000000  -34.98535561017911  2.223171974721345  -11.020535446092664  40.09780568039383  15.605541965332966  6.096648531775329  98.17814821974346  6.3147984764500915  -82.68320046840343  20.610360240053208  120.000000
8.78985  0.000000  0.000000  0.000000  -34.56257429895419  2.1329126774935054  -11.835496838879509  39.774498354571705  15.622866425310917  6.337137697438435  89.51745231468311  7.87646341548237  -73.91560299994781  20.875009168327562  120.000000
8.8473  0.000000  0.000000  0.000000  -34.191099766652705  2.011037373944449  -12.711370067427818  39.58346172294564  15.668778876193855  6.754167562343093  83.26311920890517  10.081771668319863  -67.58625854811652  21.23520669233181  120.000000
8.90475  0.000000  0.000000  0.000000  -33.90235302132511  1.8848293569039614  -13.628970559447398  39.53525670690717  15.74828289805653  7.347053194447049  79.00716140875666  12.885818604176105  -63.38906171201027  21.614265575765224  120.000000
8.9622  0.000000  0.000000  0.000000  -33.70419976472956  1.7868197081080792  -14.573741316101609  39.637127295821706  15.86855806670338  8.095723674386685  76.09284483242546  16.210456866859577  -60.75009930832312  21.94733017937704  120.000000
9.01965  0.000000  0.000000  0.000000  -33.58743967683054  1.7442274820230201  -15.525277198302263  39.89125170454094  16.032793998107064  8.971889598141837  73.98163673605994  19.961549355751828  -59.172732706114296  22.196735260905253  120.000000
9.0771  0.000000  0.000000  0.000000  -33.53621380302387  1.7702645631449974  -16.45060009783987  40.29704873411915  16.232117263216264  9.951268848305652  72.32852986115059  24.046778793067393  -58.30116914828625  22.35176098755759  120.000000
9.13455  0.000000  0.000000  0.000000  -33.54627080685619  1.8697050897835326  -17.305731298434768  40.86065228902026  16.451439380517233  11.006516124341035  70.93756893419801  28.391461758141293  -57.880251085770304  22.41836951328732  120.000000
9.192  0.000000  0.000000  0.000000  -33.625620567139066  2.04503113916594  -18.03905360357024  41.594444666084485  16.67856110934474  12.097746466937028  69.71082686740372  32.93749018340389  -57.71675483994921  22.403531933379668  120.000000
9.24945  0.000000  0.000000  0.000000  -33.789992869715135  2.2929483764619247  -18.5894361693037  42.496444100035205  16.902091524493024  13.180365996847812  68.61746637767502  37.627839122944685  -57.66242792526635  22.303883541846425  120.000000
9.3069  0.000000  0.000000  0.000000  -34.05627148607807  2.610170543269797  -18.88889510143073  43.538548450624184  17.10409131573863  14.211647751808131  67.66500193803971  42.39814307273697  -57.60490206595667  22.107263716091424  120.000000
9.36435  0.000000  0.000000  0.000000  -34.41795348260576  2.989990413241132  -18.871794901241074  44.67961972507568  17.2608808927573  15.146827110413778  66.87204734633362  47.18433181768519  -57.46231380021972  21.801408923476345  120.000000
9.421800000000001  0.000000  0.000000  0.000000  -34.83872244279223  3.4186717852723536  -18.48803644088554  45.884734060802714  17.344787947333387  15.937171465699667  66.24680937047877  51.9375676317011  -57.18308139627715  21.38770082549904  120.000000
9.47925  0.000000  0.000000  0.000000  -35.27745379998331  3.8781030697271284  -17.71657633518519  47.12149658170834  17.32272850419299  16.537450672181453  65.77185457720662  56.62384302190678  -56.74075085829663  20.887675700139305  120.000000
9.5367  0.000000  0.000000  0.000000  -35.71678438267877  4.342118975524063  -16.57844051979315  48.35081586526374  17.15499886508338  16.919803254691118  65.4079054684134  61.21454782817019  -56.127319453413506  20.341038821909923  120.000000
9.59415  0.000000  0.000000  0.000000  -36.153953577977425  4.774715679713868  -15.148000705487991  49.533222962184105  16.808302820158122  17.075524216177758  65.11079965742879  65.67046667856627  -55.34800155459398  19.794055718772018  120.000000
9.6516  0.000000  0.000000  0.000000  -36.58067033622052  5.139060828403295  -13.539993867632628  50.635810259774054  16.267278994624053  17.005560156700295  64.84573020814074  69.92006345727137  -54.42223267419276  19.289811509833495  120.000000
9.70905  0.000000  0.000000  0.000000  -36.978032191025804  5.4155356095360165  -11.870545110467765  51.62454116748051  15.542772493138724  16.725409813104484  64.5971652745023  73.8480029908413  -53.3835837925858  18.86062559054898  120.000000
